<svg width="160" height="47" viewBox="0 0 160 47" fill="none" xmlns="http://www.w3.org/2000/svg">
<path d="M158.802 40.7104C158.802 43.1323 156.779 45.107 154.255 45.107H5.58867C3.08361 45.107 1.04102 43.1509 1.04102 40.7104V5.72377C1.04102 3.3019 3.08361 1.32715 5.58867 1.32715H154.255C156.76 1.32715 158.802 3.3019 158.802 5.72377V40.7104Z" fill="white"/>
<path d="M158.802 40.7104C158.802 43.1323 156.779 45.107 154.255 45.107H5.58867C3.08361 45.107 1.04102 43.1509 1.04102 40.7104V5.72377C1.04102 3.3019 3.08361 1.32715 5.58867 1.32715H154.255C156.76 1.32715 158.802 3.3019 158.802 5.72377V40.7104Z" fill="#2A3275"/>
<path d="M35.6867 22.9753C35.6481 19.2866 38.8084 17.4795 38.9625 17.405C37.1704 14.89 34.3956 14.536 33.4128 14.5174C31.0812 14.2752 28.8266 15.8587 27.6319 15.8587C26.4179 15.8587 24.5873 14.536 22.6218 14.5733C20.0782 14.6105 17.708 16.0264 16.4169 18.2433C13.7384 22.7331 15.7425 29.3467 18.3053 32.9795C19.5964 34.7679 21.0995 36.7427 23.065 36.6682C24.992 36.5936 25.7049 35.4758 28.0366 35.4758C30.3297 35.4758 31.0234 36.6681 33.0274 36.6123C35.0893 36.575 36.3996 34.8238 37.6329 33.0354C39.1167 31.0047 39.714 28.9927 39.7333 28.8809C39.6948 28.8623 35.7252 27.3905 35.6867 22.9753Z" fill="white"/>
<path d="M31.8916 12.1141C32.9321 10.8659 33.6451 9.15192 33.4332 7.43799C31.9301 7.49388 30.061 8.44399 28.9818 9.67356C28.0184 10.7541 27.1705 12.5239 27.4017 14.182C29.0975 14.2937 30.8125 13.3436 31.8916 12.1141Z" fill="white"/>
<path d="M153.588 1H77L107.009 45H153.606C156.572 45 159 42.6739 159 39.8109V6.20699C158.963 3.34404 156.553 1 153.588 1Z" fill="url(#paint0_linear_57_4981)"/>
<path d="M63.5905 36.3885H60.8928L59.4283 31.9174H54.2832L52.8765 36.3885H50.2559L55.3238 21.1494H58.4648L63.5905 36.3885ZM58.9658 30.0358L57.6362 26.049C57.5013 25.6392 57.2315 24.6891 56.8461 23.1801H56.8076C56.6534 23.8321 56.4029 24.7822 56.0561 26.049L54.7457 30.0358H58.9658Z" fill="white"/>
<path d="M76.6171 30.7627C76.6171 32.6256 76.0968 34.116 75.037 35.1966C74.0928 36.1653 72.9173 36.6497 71.5299 36.6497C70.0268 36.6497 68.9477 36.128 68.2926 35.0848V40.86H65.7682V29.0301C65.7682 27.8564 65.7297 26.6455 65.6719 25.4159H67.8879L68.0228 27.1671H68.0613C68.9092 25.8631 70.181 25.1924 71.896 25.1924C73.2449 25.1924 74.3625 25.6954 75.2489 26.7387C76.1546 27.7447 76.6171 29.086 76.6171 30.7627ZM74.0349 30.8558C74.0349 29.7939 73.7844 28.8997 73.2834 28.2104C72.7439 27.4838 72.0116 27.1299 71.0867 27.1299C70.47 27.1299 69.8919 27.3348 69.3909 27.726C68.8899 28.1359 68.5431 28.6575 68.3889 29.2909C68.3118 29.589 68.2733 29.8312 68.2733 30.0361V31.8618C68.2733 32.6629 68.5238 33.3336 69.0248 33.8925C69.5258 34.4514 70.2003 34.7122 71.0096 34.7122C71.9538 34.7122 72.7053 34.3582 73.2256 33.6503C73.7652 32.9424 74.0349 32.0109 74.0349 30.8558Z" fill="white"/>
<path d="M89.6816 30.7627C89.6816 32.6256 89.1613 34.116 88.1014 35.1966C87.1572 36.1653 85.9818 36.6497 84.5943 36.6497C83.0913 36.6497 82.0122 36.128 81.357 35.0848V40.86H78.8327V29.0301C78.8327 27.8564 78.7941 26.6455 78.7363 25.4159H80.9523L81.0872 27.1671H81.1258C81.9736 25.8631 83.2455 25.1924 84.9605 25.1924C86.3093 25.1924 87.427 25.6954 88.3134 26.7387C89.2383 27.7447 89.6816 29.086 89.6816 30.7627ZM87.1187 30.8558C87.1187 29.7939 86.8682 28.8997 86.3672 28.2104C85.8276 27.4838 85.0953 27.1299 84.1704 27.1299C83.5538 27.1299 82.9757 27.3348 82.4747 27.726C81.9736 28.1359 81.6461 28.6575 81.4726 29.2909C81.3956 29.589 81.357 29.8312 81.357 30.0361V31.8618C81.357 32.6629 81.6075 33.3336 82.1085 33.8925C82.6095 34.4327 83.284 34.7122 84.0933 34.7122C85.0375 34.7122 85.7891 34.3582 86.3093 33.6503C86.8489 32.9424 87.1187 32.0109 87.1187 30.8558Z" fill="white"/>
<path d="M104.307 32.1226C104.307 33.4267 103.844 34.4699 102.9 35.2897C101.879 36.1839 100.433 36.631 98.6028 36.631C96.907 36.631 95.5389 36.3143 94.5176 35.6809L95.0957 33.6502C96.194 34.2836 97.4273 34.6004 98.7377 34.6004C99.6819 34.6004 100.433 34.3954 100.954 33.9856C101.474 33.5757 101.744 33.0168 101.744 32.3275C101.744 31.7127 101.532 31.1911 101.089 30.7626C100.645 30.3341 99.9324 29.9429 98.9111 29.589C96.1555 28.6016 94.7681 27.1298 94.7681 25.2296C94.7681 23.9814 95.2498 22.9568 96.2326 22.1557C97.2153 21.3546 98.5064 20.9634 100.106 20.9634C101.532 20.9634 102.746 21.2056 103.69 21.6899L103.054 23.6833C102.168 23.2176 101.146 22.9754 100.029 22.9754C99.1423 22.9754 98.4293 23.1803 97.9476 23.6088C97.5237 23.9814 97.3117 24.4471 97.3117 24.9874C97.3117 25.5836 97.5622 26.0866 98.0439 26.4778C98.4679 26.8317 99.2194 27.223 100.337 27.6515C101.686 28.1731 102.688 28.7879 103.324 29.4958C103.998 30.1851 104.307 31.0607 104.307 32.1226Z" fill="white"/>
<path d="M112.689 27.2415H109.895V32.5696C109.895 33.9296 110.377 34.6003 111.359 34.6003C111.803 34.6003 112.188 34.563 112.477 34.4885L112.554 36.3515C112.053 36.5378 111.398 36.6309 110.589 36.6309C109.587 36.6309 108.816 36.3328 108.257 35.7553C107.698 35.1592 107.409 34.1718 107.409 32.7932V27.2415H105.752V25.4158H107.409V23.4038L109.895 22.6772V25.4158H112.689C112.689 25.3972 112.689 27.2415 112.689 27.2415Z" fill="white"/>
<path d="M125.234 30.8186C125.234 32.5139 124.733 33.8925 123.731 34.973C122.69 36.0908 121.303 36.6497 119.568 36.6497C117.892 36.6497 116.562 36.1094 115.579 35.0475C114.597 33.9856 114.096 32.6257 114.096 31.0049C114.096 29.3096 114.616 27.9123 115.637 26.8132C116.659 25.7326 118.046 25.1924 119.761 25.1924C121.437 25.1924 122.767 25.7326 123.788 26.7945C124.733 27.8192 125.234 29.1605 125.234 30.8186ZM122.613 30.8745C122.613 29.8684 122.382 29.0115 121.938 28.2849C121.418 27.4093 120.647 26.9808 119.665 26.9808C118.643 26.9808 117.873 27.4093 117.352 28.2849C116.909 29.0115 116.678 29.8871 116.678 30.9303C116.678 31.9364 116.909 32.8119 117.352 33.5199C117.892 34.3955 118.663 34.824 119.645 34.824C120.609 34.824 121.36 34.3768 121.919 33.5013C122.362 32.7374 122.613 31.8805 122.613 30.8745Z" fill="white"/>
<path d="M133.443 27.5584C133.192 27.5212 132.922 27.4839 132.653 27.4839C131.766 27.4839 131.073 27.8006 130.591 28.4527C130.167 29.0302 129.955 29.7567 129.955 30.6323V36.4076H127.431V28.8811C127.431 27.6143 127.411 26.4593 127.354 25.416H129.55L129.647 27.5212H129.724C129.993 26.7946 130.417 26.2171 130.995 25.77C131.554 25.3788 132.171 25.1738 132.826 25.1738C133.057 25.1738 133.269 25.1925 133.462 25.2111L133.443 27.5584Z" fill="white"/>
<path d="M144.736 30.3713C144.736 30.7997 144.697 31.1723 144.64 31.4704H137.067C137.086 32.5509 137.471 33.3893 138.165 33.9668C138.801 34.4698 139.63 34.7306 140.651 34.7306C141.768 34.7306 142.79 34.563 143.715 34.209L144.119 35.9043C143.04 36.3514 141.768 36.575 140.304 36.575C138.55 36.575 137.163 36.072 136.142 35.066C135.14 34.06 134.639 32.7186 134.639 31.0233C134.639 29.3653 135.101 27.9867 136.045 26.8875C137.028 25.7138 138.358 25.1177 140.015 25.1177C141.653 25.1177 142.886 25.7138 143.734 26.8875C144.408 27.8562 144.736 29.0113 144.736 30.3713ZM142.327 29.7379C142.347 29.0113 142.173 28.3965 141.846 27.8562C141.402 27.1669 140.728 26.8316 139.842 26.8316C139.013 26.8316 138.338 27.1669 137.837 27.819C137.414 28.3406 137.163 28.974 137.086 29.7192L142.327 29.7379Z" fill="white"/>
<path d="M57.7507 15.6908H56.4211L55.6888 13.4925H53.1645L52.4708 15.6908H51.1797L53.6655 8.20166H55.2071L57.7507 15.6908ZM55.4961 12.5796L54.8409 10.6235C54.7639 10.4186 54.6482 9.95285 54.4555 9.20767H54.4363C54.3592 9.52437 54.2436 9.99012 54.0702 10.6235L53.4343 12.5796H55.4961Z" fill="white"/>
<path d="M63.9934 10.2881L61.8738 15.6907H60.6598L58.6172 10.2881H59.9468L60.9103 13.1384C61.0644 13.6228 61.1993 14.0699 61.315 14.4984H61.3535C61.4498 14.1072 61.5847 13.6601 61.7582 13.1384L62.7024 10.2881C62.6831 10.2881 63.9934 10.2881 63.9934 10.2881Z" fill="white"/>
<path d="M68.5034 15.691L68.4071 15.0762H68.3686C67.9832 15.5792 67.4436 15.8214 66.7306 15.8214C65.7286 15.8214 65.0156 15.1507 65.0156 14.2379C65.0156 12.8966 66.2103 12.2073 68.2722 12.2073V12.1141C68.2722 11.4062 67.8868 11.0522 67.116 11.0522C66.5572 11.0522 66.0755 11.1826 65.6515 11.4621L65.401 10.6796C65.9213 10.3629 66.5572 10.2139 67.328 10.2139C68.7925 10.2139 69.5247 10.9591 69.5247 12.4494V14.4428C69.5247 14.9831 69.544 15.4116 69.6018 15.7283L68.5034 15.691ZM68.33 13.0083C66.9426 13.0083 66.2682 13.325 66.2682 14.0889C66.2682 14.6477 66.6343 14.9272 67.116 14.9272C67.7519 14.9272 68.33 14.4614 68.33 13.828C68.33 13.8467 68.33 13.0083 68.33 13.0083Z" fill="white"/>
<path d="M72.2987 9.39396C71.894 9.39396 71.5664 9.07726 71.5664 8.6674C71.5664 8.25755 71.894 7.95947 72.3179 7.95947C72.7419 7.95947 73.0887 8.25755 73.0694 8.6674C73.0887 9.11452 72.7611 9.39396 72.2987 9.39396ZM72.9346 15.6908H71.7013V10.2882H72.9346V15.6908Z" fill="white"/>
<path d="M76.3837 15.6909H75.1504V7.81055H76.3837V15.6909Z" fill="white"/>
<path d="M81.6636 15.691L81.5673 15.0762H81.5287C81.1433 15.5792 80.6038 15.8214 79.8908 15.8214C78.8888 15.8214 78.1758 15.1507 78.1758 14.2379C78.1758 12.8966 79.3705 12.2073 81.4324 12.2073V12.1141C81.4324 11.4062 81.047 11.0522 80.2762 11.0522C79.7174 11.0522 79.2356 11.1826 78.8117 11.4621L78.5612 10.6796C79.0815 10.3629 79.7174 10.2139 80.4882 10.2139C81.9527 10.2139 82.6849 10.9591 82.6849 12.4494V14.4428C82.6849 14.9831 82.7042 15.4116 82.762 15.7283H81.6636V15.691ZM81.4902 13.0083C80.1028 13.0083 79.4283 13.325 79.4283 14.0889C79.4283 14.6477 79.7944 14.9272 80.2762 14.9272C80.9121 14.9272 81.4902 14.4614 81.4902 13.828V13.0083Z" fill="white"/>
<path d="M87.734 15.8213C86.9439 15.8213 86.3465 15.5046 85.9804 14.8711H85.9611L85.8841 15.7095H84.8242C84.8628 15.281 84.8628 14.778 84.8628 14.2564V7.8291H86.1153V11.0893H86.1346C86.5007 10.4932 87.098 10.1951 87.9074 10.1951C89.2563 10.1951 90.2005 11.3129 90.2005 12.9337C90.2005 14.5917 89.1599 15.8213 87.734 15.8213ZM87.4834 11.1266C86.7705 11.1266 86.1153 11.7227 86.1153 12.5611V13.5112C86.1153 14.2564 86.6934 14.8711 87.4642 14.8711C88.3891 14.8711 88.9479 14.1446 88.9479 12.9709C88.9479 11.8718 88.3699 11.1266 87.4834 11.1266Z" fill="white"/>
<path d="M93.284 15.6909H92.0508V7.81055H93.284V15.6909Z" fill="white"/>
<path d="M100.049 13.2879H96.3295C96.3488 14.3126 97.0617 14.8901 98.083 14.8901C98.6419 14.8901 99.1429 14.7969 99.5861 14.6293L99.7788 15.4676C99.2585 15.6912 98.6226 15.8029 97.9096 15.8029C96.1561 15.8029 95.1348 14.741 95.1348 13.083C95.1348 11.425 96.1946 10.1768 97.7747 10.1768C99.2007 10.1768 100.106 11.2014 100.106 12.7477C100.087 12.9526 100.087 13.1389 100.049 13.2879ZM98.9116 12.431C98.9116 11.5926 98.4684 11.0151 97.6784 11.0151C96.9654 11.0151 96.4066 11.6112 96.3295 12.431H98.9116Z" fill="white"/>
<path d="M107.583 15.8215C105.945 15.8215 104.885 14.6478 104.885 13.0457C104.885 11.369 105.964 10.1953 107.679 10.1953C109.278 10.1953 110.377 11.3131 110.377 12.9711C110.357 14.6478 109.24 15.8215 107.583 15.8215ZM107.621 11.0523C106.715 11.0523 106.157 11.872 106.157 12.9898C106.157 14.1076 106.735 14.9086 107.621 14.9086C108.507 14.9086 109.086 14.033 109.086 12.9711C109.066 11.8906 108.488 11.0523 107.621 11.0523Z" fill="white"/>
<path d="M117.024 15.6912H115.79V12.58C115.79 11.6299 115.405 11.1455 114.673 11.1455C113.941 11.1455 113.42 11.7603 113.42 12.4682V15.6912H112.187V11.8348C112.187 11.3504 112.168 10.8474 112.148 10.2885H113.247L113.305 11.1269H113.343C113.671 10.5494 114.364 10.1768 115.116 10.1768C116.291 10.1768 117.062 11.0524 117.062 12.4496L117.024 15.6912Z" fill="white"/>
<path d="M125.155 11.201H123.787V13.8278C123.787 14.4984 124.018 14.8338 124.52 14.8338C124.731 14.8338 124.924 14.8151 125.078 14.7779L125.117 15.6907C124.866 15.7839 124.558 15.8212 124.153 15.8212C123.171 15.8212 122.593 15.2995 122.593 13.9395V11.2196H121.783V10.2881H122.593V9.30074L123.807 8.94678V10.2881H125.175V11.201H125.155Z" fill="white"/>
<path d="M131.727 15.6909H130.475V12.617C130.475 11.6483 130.089 11.1639 129.357 11.1639C128.721 11.1639 128.124 11.5924 128.124 12.4494V15.6909H126.871V7.81055H128.124V11.0521H128.143C128.528 10.456 129.106 10.1765 129.819 10.1765C130.995 10.1765 131.727 11.0708 131.727 12.4866V15.6909Z" fill="white"/>
<path d="M138.085 13.2879H134.347C134.366 14.3126 135.079 14.8901 136.101 14.8901C136.659 14.8901 137.16 14.7969 137.604 14.6293L137.796 15.4676C137.276 15.6912 136.64 15.8029 135.927 15.8029C134.174 15.8029 133.152 14.741 133.152 13.083C133.152 11.425 134.212 10.1768 135.792 10.1768C137.218 10.1768 138.124 11.2014 138.124 12.7477C138.124 12.9526 138.105 13.1389 138.085 13.2879ZM136.948 12.431C136.948 11.5926 136.505 11.0151 135.715 11.0151C135.002 11.0151 134.443 11.6112 134.366 12.431H136.948Z" fill="white"/>
<defs>
<linearGradient id="paint0_linear_57_4981" x1="117.976" y1="45.1225" x2="117.976" y2="5.46184" gradientUnits="userSpaceOnUse">
<stop stop-color="#1A1A1A" stop-opacity="0.1"/>
<stop offset="0.1235" stop-color="#212121" stop-opacity="0.1506"/>
<stop offset="0.3085" stop-color="#353535" stop-opacity="0.2265"/>
<stop offset="0.5321" stop-color="#575757" stop-opacity="0.3181"/>
<stop offset="0.7834" stop-color="#858585" stop-opacity="0.4212"/>
<stop offset="1" stop-color="#B3B3B3" stop-opacity="0.51"/>
</linearGradient>
</defs>
</svg>
