<svg xmlns="http://www.w3.org/2000/svg" width="29.624" height="28.336" viewBox="0 0 29.624 28.336">
  <g id="logout" transform="translate(0 -0.332)">
    <path id="Path_136" data-name="Path 136" d="M168.974,220.932H150.3a.966.966,0,1,1,0-1.932h18.676a.966.966,0,0,1,0,1.932Zm0,0" transform="translate(-140.316 -205.466)" fill="#36b6e1"/>
    <path id="Path_137" data-name="Path 137" d="M155.458,145.889a.958.958,0,0,1-.683-.283l-5.152-5.152a.967.967,0,0,1,0-1.367l5.152-5.152a.966.966,0,1,1,1.367,1.366l-4.469,4.469,4.469,4.469a.965.965,0,0,1-.684,1.648Zm0,0" transform="translate(-140.324 -125.271)" fill="#36b6e1"/>
    <path id="Path_138" data-name="Path 138" d="M14.168,28.668A14.168,14.168,0,1,1,27.354,9.317a.966.966,0,1,1-1.8.707,12.235,12.235,0,1,0,0,8.953.966.966,0,1,1,1.8.707,14.1,14.1,0,0,1-13.186,8.984Zm0,0" fill="#68387d"/>
  </g>
</svg>
