<svg id="account" xmlns="http://www.w3.org/2000/svg" width="27.854" height="27.854" viewBox="0 0 27.854 27.854">
  <path id="Path_22" data-name="Path 22" d="M27.854,13.927A13.927,13.927,0,1,0,13.927,27.854,13.919,13.919,0,0,0,27.854,13.927ZM13.927,1.632A12.3,12.3,0,0,1,24.117,20.81a13.922,13.922,0,0,0-20.379,0A12.3,12.3,0,0,1,13.927,1.632ZM4.756,22.115a12.292,12.292,0,0,1,18.343,0A12.283,12.283,0,0,1,4.756,22.115Zm0,0" fill="#68387d"/>
  <path id="Path_23" data-name="Path 23" d="M170.9,72.425a4.9,4.9,0,0,0,4.9-4.9V65.9a4.9,4.9,0,0,0-9.793,0v1.632A4.9,4.9,0,0,0,170.9,72.425ZM167.632,65.9a3.264,3.264,0,1,1,6.528,0v1.632a3.264,3.264,0,1,1-6.528,0Zm0,0" transform="translate(-156.969 -57.681)" fill="#36b6e1"/>
</svg>
