<svg id="subscription" xmlns="http://www.w3.org/2000/svg" width="47" height="32.9" viewBox="0 0 47 32.9">
  <path id="Path_104" data-name="Path 104" d="M148.583,0H130.47A2.412,2.412,0,0,0,128,2.35v28.2a2.412,2.412,0,0,0,2.47,2.35h4.94V31.333h-4.94a.8.8,0,0,1-.823-.783V2.35a.8.8,0,0,1,.823-.783h18.113a.8.8,0,0,1,.823.783v28.2a.8.8,0,0,1-.823.783h-4.94V32.9h4.94a2.412,2.412,0,0,0,2.47-2.35V2.35A2.412,2.412,0,0,0,148.583,0Zm0,0" transform="translate(-116.027)" fill="#68387d"/>
  <path id="Path_105" data-name="Path 105" d="M2.47,58.313h9.057V56.765H2.47a.8.8,0,0,1-.823-.774V34.322a.8.8,0,0,1,.823-.774h9.057V32H2.47A2.4,2.4,0,0,0,0,34.322v21.67A2.4,2.4,0,0,0,2.47,58.313Zm0,0" transform="translate(0 -28.707)" fill="#68387d"/>
  <path id="Path_106" data-name="Path 106" d="M192,40h1.647v1.647H192Zm0,0" transform="translate(-173.233 -35.883)" fill="#36b6e1"/>
  <path id="Path_107" data-name="Path 107" d="M224,40h6.587v1.647H224Zm0,0" transform="translate(-202.239 -35.883)" fill="#36b6e1"/>
  <path id="Path_108" data-name="Path 108" d="M168,80h1.647v3.293H168Zm0,0" transform="translate(-151.579 -72.209)" fill="#36b6e1"/>
  <path id="Path_109" data-name="Path 109" d="M200,80h1.647v3.293H200Zm0,0" transform="translate(-180.451 -72.209)" fill="#36b6e1"/>
  <path id="Path_110" data-name="Path 110" d="M232,80h1.647v3.293H232Zm0,0" transform="translate(-209.323 -72.209)" fill="#36b6e1"/>
  <path id="Path_111" data-name="Path 111" d="M264,80h1.647v3.293H264Zm0,0" transform="translate(-238.196 -72.209)" fill="#36b6e1"/>
  <path id="Path_112" data-name="Path 112" d="M296,80h1.647v3.293H296Zm0,0" transform="translate(-267.068 -72.209)" fill="#36b6e1"/>
  <path id="Path_113" data-name="Path 113" d="M232,136h5.763v1.647H232Zm0,0" transform="translate(-209.437 -122.717)" fill="#36b6e1"/>
  <path id="Path_114" data-name="Path 114" d="M194.47,236.94h4.94a2.47,2.47,0,1,0,0-4.94h-4.94a2.47,2.47,0,0,0,0,4.94Zm0-3.293h4.94a.823.823,0,0,1,0,1.647h-4.94a.823.823,0,1,1,0-1.647Zm0,0" transform="translate(-173.44 -209.477)" fill="#36b6e1"/>
  <path id="Path_115" data-name="Path 115" d="M88,64h2.47v1.647H88Zm0,0" transform="translate(-79.406 -57.749)" fill="#68387d"/>
  <path id="Path_116" data-name="Path 116" d="M32,104h1.647v2.47H32Zm0,0" transform="translate(-28.707 -93.857)" fill="#68387d"/>
  <path id="Path_117" data-name="Path 117" d="M64,104h1.647v2.47H64Zm0,0" transform="translate(-57.413 -93.857)" fill="#68387d"/>
  <path id="Path_118" data-name="Path 118" d="M96,104h1.647v2.47H96Zm0,0" transform="translate(-86.617 -93.857)" fill="#68387d"/>
  <path id="Path_119" data-name="Path 119" d="M56,64h1.647v1.647H56Zm0,0" transform="translate(-50.237 -57.749)" fill="#68387d"/>
  <path id="Path_120" data-name="Path 120" d="M42.47,220.94h4.94v-1.647H42.47a.823.823,0,0,1,0-1.647h4.94V216H42.47a2.47,2.47,0,0,0,0,4.94Zm0,0" transform="translate(-35.883 -195.03)" fill="#36b6e1"/>
  <path id="Path_121" data-name="Path 121" d="M377.057,32H368v1.548h9.057a.8.8,0,0,1,.823.774v21.67a.8.8,0,0,1-.823.774H368v1.548h9.057a2.4,2.4,0,0,0,2.47-2.322V34.322A2.4,2.4,0,0,0,377.057,32Zm0,0" transform="translate(-332.527 -28.707)" fill="#68387d"/>
  <path id="Path_122" data-name="Path 122" d="M368,64h5.763v1.647H368Zm0,0" transform="translate(-332.527 -57.749)" fill="#68387d"/>
  <path id="Path_123" data-name="Path 123" d="M432,104h1.647v2.47H432Zm0,0" transform="translate(-389.94 -93.857)" fill="#68387d"/>
  <path id="Path_124" data-name="Path 124" d="M400,104h1.647v2.47H400Zm0,0" transform="translate(-361.233 -93.857)" fill="#68387d"/>
  <path id="Path_125" data-name="Path 125" d="M368,104h1.647v2.47H368Zm0,0" transform="translate(-332.03 -93.857)" fill="#68387d"/>
  <path id="Path_126" data-name="Path 126" d="M368,216v1.647h4.94a.823.823,0,0,1,0,1.647H368v1.647h4.94a2.47,2.47,0,0,0,0-4.94Zm0,0" transform="translate(-332.527 -195.03)" fill="#36b6e1"/>
  <path id="Path_128" data-name="Path 128" d="M192,136h2.47v1.647H192Zm0,0" transform="translate(-173.251 -122.717)" fill="#36b6e1"/>
  <path id="Path_129" data-name="Path 129" d="M192,168h9.88v1.647H192Zm0,0" transform="translate(-173.44 -151.592)" fill="#36b6e1"/>
  <path id="Path_130" data-name="Path 130" d="M208,200h6.587v1.647H208Zm0,0" transform="translate(-187.793 -180.467)" fill="#36b6e1"/>
  <path id="Path_131" data-name="Path 131" d="M64,152h4.94v1.647H64Zm0,0" transform="translate(-57.413 -137.155)" fill="#68387d"/>
  <path id="Path_132" data-name="Path 132" d="M80,184h3.293v1.647H80Zm0,0" transform="translate(-72.195 -166.029)" fill="#68387d"/>
  <path id="Path_133" data-name="Path 133" d="M368,152h4.117v1.647H368Zm0,0" transform="translate(-332.134 -137.155)" fill="#68387d"/>
  <path id="Path_134" data-name="Path 134" d="M368,184h2.47v1.647H368Zm0,0" transform="translate(-332.064 -166.029)" fill="#68387d"/>
</svg>
