<svg xmlns="http://www.w3.org/2000/svg" width="32.959" height="35" viewBox="0 0 32.959 35">
  <g id="wallet" transform="translate(-20.408 0.001)">
    <g id="Group_51" data-name="Group 51" transform="translate(31.604 5.568)">
      <path id="Path_32" data-name="Path 32" d="M201.235,90.523l2.127-2.126a1.776,1.776,0,0,1,0-2.513l-3.424-3.421a1.78,1.78,0,0,1-2.515,0l-8.066,8.06h11.878Z" transform="translate(-189.357 -82.463)" fill="none" stroke="#36b6e1" stroke-width="1.5"/>
    </g>
    <g id="Group_53" data-name="Group 53" transform="translate(20.408 -0.001)">
      <g id="Group_52" data-name="Group 52">
        <path id="Path_33" data-name="Path 33" d="M49.827,27.134V32.57a1.063,1.063,0,0,1-1.062,1.062H25.993V14.05H48.765a1.063,1.063,0,0,1,1.062,1.062v5.435h1.365V15.112a2.433,2.433,0,0,0-1.961-2.385l1.134-1.136a2.08,2.08,0,0,0,0-2.939L42.327.607a2.075,2.075,0,0,0-2.934,0L27.331,12.683h-4.5a2.431,2.431,0,0,0-2.426,2.43V32.57A2.431,2.431,0,0,0,22.834,35H48.765a2.431,2.431,0,0,0,2.426-2.43V27.134H49.827ZM40.358,1.574a.711.711,0,0,1,1,0L49.4,9.62a.71.71,0,0,1,0,1l-2.056,2.058H29.262ZM24.629,33.632H22.834a1.063,1.063,0,0,1-1.062-1.062V15.112a1.063,1.063,0,0,1,1.062-1.062h1.794Z" transform="translate(-20.408 0.001)" fill="#68387d"/>
      </g>
    </g>
    <path id="Path_34" data-name="Path 34" d="M330,298.875H321.74a4.147,4.147,0,0,1,0-8.294H330Z" transform="translate(-277.378 -270.967)" fill="none" stroke="#36b6e1" stroke-width="1.5"/>
    <g id="Group_54" data-name="Group 54" transform="translate(42.727 21.432)">
      <path id="Path_35" data-name="Path 35" d="M351.572,320.269a2.369,2.369,0,1,1,2.37-2.369A2.372,2.372,0,0,1,351.572,320.269Zm0-3.311a.943.943,0,1,0,.944.943A.945.945,0,0,0,351.572,316.958Z" transform="translate(-349.202 -315.532)" fill="#68387d"/>
    </g>
  </g>
</svg>
