<svg id="Online" xmlns="http://www.w3.org/2000/svg" width="49.495" height="49.495" viewBox="0 0 49.495 49.495">
  <path id="Path_40" data-name="Path 40" d="M30.047,11.115V4.475A2.482,2.482,0,0,0,27.572,2H4.475A2.482,2.482,0,0,0,2,4.475V49.02a2.482,2.482,0,0,0,2.475,2.475h23.1a2.482,2.482,0,0,0,2.475-2.475V42.379a15.653,15.653,0,0,0,0-31.264ZM43.2,25.922H36.63a31.168,31.168,0,0,0-.8-6.426,15.859,15.859,0,0,0,3.6-2.335,13.976,13.976,0,0,1,3.77,8.761Zm-4.966-9.907a13.624,13.624,0,0,1-2.854,1.873,14.4,14.4,0,0,0-2.335-4.62,14.036,14.036,0,0,1,5.189,2.747ZM22.615,19.5a31.168,31.168,0,0,0-.8,6.426H15.24a13.976,13.976,0,0,1,3.77-8.761,15.859,15.859,0,0,0,3.6,2.335Zm-2.409-3.481a14.036,14.036,0,0,1,5.189-2.747,14.4,14.4,0,0,0-2.335,4.62A13.624,13.624,0,0,1,20.206,16.015Zm1.609,11.557a31.168,31.168,0,0,0,.8,6.426,15.859,15.859,0,0,0-3.6,2.334,13.977,13.977,0,0,1-3.77-8.761Zm1.246,8.035a14.4,14.4,0,0,0,2.334,4.62,14.036,14.036,0,0,1-5.189-2.747,13.625,13.625,0,0,1,2.854-1.873Zm.4-8.035H34.98A29.444,29.444,0,0,1,34.3,33.38a15.426,15.426,0,0,0-10.146,0,29.444,29.444,0,0,1-.685-5.807Zm0-1.65a29.444,29.444,0,0,1,.685-5.807,15.426,15.426,0,0,0,10.146,0,29.444,29.444,0,0,1,.685,5.807Zm10.4-7.408a13.745,13.745,0,0,1-9.289,0c1.122-3.63,2.92-5.791,4.644-5.791S32.744,14.885,33.866,18.515ZM24.042,3.65l-.256,1.023a.825.825,0,0,1-.8.627H9.061a.825.825,0,0,1-.8-.627L8.005,3.65ZM28.4,49.02a.825.825,0,0,1-.825.825H4.475a.825.825,0,0,1-.825-.825V4.475a.825.825,0,0,1,.825-.825H6.306l.355,1.427a2.475,2.475,0,0,0,2.4,1.873H22.986a2.475,2.475,0,0,0,2.4-1.873l.355-1.427h1.831a.825.825,0,0,1,.825.825v6.641a15.653,15.653,0,0,0,0,31.264Zm.825-8.249c-1.724,0-3.522-2.161-4.644-5.791a13.745,13.745,0,0,1,9.289,0c-1.122,3.63-2.92,5.791-4.644,5.791Zm3.828-.544a14.4,14.4,0,0,0,2.335-4.62,13.624,13.624,0,0,1,2.854,1.873,14.036,14.036,0,0,1-5.189,2.747Zm6.385-3.894A15.859,15.859,0,0,0,35.83,34a31.168,31.168,0,0,0,.8-6.426H43.2A13.977,13.977,0,0,1,39.434,36.333Z" transform="translate(-2 -2)" fill="#68387d"/>
  <path id="Path_41" data-name="Path 41" d="M10,56H24.848v1.65H10Z" transform="translate(-3.401 -11.455)" fill="#36b6e1"/>
  <path id="Path_42" data-name="Path 42" d="M6,56H7.65v1.65H6Z" transform="translate(-2.7 -11.455)" fill="#68387d"/>
  <path id="Path_43" data-name="Path 43" d="M30,56h1.65v1.65H30Z" transform="translate(-6.902 -11.455)" fill="#68387d"/>
  <path id="Path_44" data-name="Path 44" d="M0,0H3.3V1.65H0Z" transform="translate(31.342 6.206) rotate(-74.991)" fill="#36b6e1"/>
  <path id="Path_45" data-name="Path 45" d="M0,0H3.3V1.65H0Z" transform="matrix(0.5, -0.866, 0.866, 0.5, 35.997, 7.907)" fill="#36b6e1"/>
  <path id="Path_46" data-name="Path 46" d="M0,0H3.3V1.65H0Z" transform="translate(40.049 10.751) rotate(-45)" fill="#36b6e1"/>
  <path id="Path_47" data-name="Path 47" d="M0,0H3.3V1.65H0Z" transform="matrix(0.866, -0.5, 0.5, 0.866, 43.239, 14.544)" fill="#36b6e1"/>
  <path id="Path_48" data-name="Path 48" d="M0,0H3.3V1.65H0Z" transform="translate(45.341 19.038) rotate(-15.009)" fill="#36b6e1"/>
  <path id="Path_49" data-name="Path 49" d="M58,31h3.3v1.65H58Z" transform="translate(-11.805 -7.078)" fill="#36b6e1"/>
  <path id="Path_50" data-name="Path 50" d="M0,0H1.65V3.3H0Z" transform="translate(45.342 30.453) rotate(-74.991)" fill="#36b6e1"/>
  <path id="Path_51" data-name="Path 51" d="M0,0H1.65V3.3H0Z" transform="matrix(0.5, -0.866, 0.866, 0.5, 43.24, 34.952)" fill="#36b6e1"/>
  <path id="Path_52" data-name="Path 52" d="M0,0H1.65V3.3H0Z" transform="translate(40.046 38.747) rotate(-45)" fill="#36b6e1"/>
  <path id="Path_53" data-name="Path 53" d="M0,0H1.65V3.3H0Z" transform="matrix(0.866, -0.5, 0.5, 0.866, 35.994, 41.589)" fill="#36b6e1"/>
  <path id="Path_54" data-name="Path 54" d="M0,0H1.65V3.3H0Z" transform="translate(31.344 43.288) rotate(-15.009)" fill="#36b6e1"/>
</svg>
