<svg xmlns="http://www.w3.org/2000/svg" width="35" height="35" viewBox="0 0 35 35">
  <g id="XMLID_1125_" transform="translate(0 -0.001)">
    <g id="XMLID_281_" transform="translate(0 0.001)">
      <text id="N" transform="translate(16 18.8)" fill="#36b6e1" font-size="7" font-family="CircularStd-Bold, Circular Std" font-weight="700" text-decoration="line-through"><tspan x="0" y="0">N</tspan></text>
      <path id="XMLID_1217_" d="M34.9,22.837a2.614,2.614,0,0,0-3.743-1.582,12.046,12.046,0,0,0-.493-5.811.684.684,0,0,0-1.293.444,10.672,10.672,0,0,1,.022,6.836l-5.448,4.838a5.494,5.494,0,0,1-1.1.757,2.623,2.623,0,0,0-1.414-3l-4.826-2.312a8.773,8.773,0,0,0-6.775-.321l-.491.18a10.559,10.559,0,0,1,2.5-11.028l4.826-4.826h5.343L26.1,11.1a.684.684,0,0,0,.967-.967L23.16,6.231l1.412-4.065A1.23,1.23,0,0,0,22.541.893L22.532.9a.725.725,0,0,1-1.025,0,3.081,3.081,0,0,0-4.352,0A.725.725,0,0,1,16.13.9,1.23,1.23,0,0,0,14.1,2.177l1.419,4.054-4.644,4.644a11.973,11.973,0,0,0-2.82,12.467l-1.078.4a1.957,1.957,0,0,0-1.554-.768H1.96A1.962,1.962,0,0,0,0,24.929v8.112A1.962,1.962,0,0,0,1.96,35H19.977a10.756,10.756,0,0,0,7.536-3.059l6.694-6.506A2.61,2.61,0,0,0,34.9,22.837ZM16.643,2.481a2.079,2.079,0,0,0,1.479-.613,1.712,1.712,0,0,1,2.418,0,2.094,2.094,0,0,0,2.584.3l-1.21,3.482H16.763L15.546,2.171A2.079,2.079,0,0,0,16.643,2.481ZM1.367,33.041V24.929a.593.593,0,0,1,.592-.592H5.423a.593.593,0,0,1,.592.592v8.112a.593.593,0,0,1-.592.592H1.96A.593.593,0,0,1,1.367,33.041Zm31.887-8.585L26.56,30.962a9.4,9.4,0,0,1-6.583,2.672H7.291a1.952,1.952,0,0,0,.092-.592v-8L10.3,23.973a7.4,7.4,0,0,1,5.714.271l4.826,2.312a1.258,1.258,0,0,1,.529,1.793,1.256,1.256,0,0,1-1.454.541L13.5,26.85a.684.684,0,0,0-.414,1.3L19.5,30.192a2.632,2.632,0,0,0,.8.124c.032,0,.064,0,.1,0a6.847,6.847,0,0,0,4.454-1.728l6.707-5.957a1.253,1.253,0,0,1,1.088-.287,1.248,1.248,0,0,1,.61,2.115Z" transform="translate(0 -0.001)" fill="#68387d"/>
      <path id="XMLID_1298_" d="M409.423,180.357a.684.684,0,1,0-.483-.2A.686.686,0,0,0,409.423,180.357Z" transform="translate(-380.797 -166.754)" fill="#36b6e1"/>
    </g>
  </g>
</svg>
