<svg id="XMLID_1125_" xmlns="http://www.w3.org/2000/svg" width="30.37" height="30.37" viewBox="0 0 30.37 30.37">
  <g id="XMLID_281_" transform="translate(0 0)">
    <text id="N" transform="translate(14.156 18)" fill="#36b6e1" font-size="7" font-family="CircularStd-Bold, Circular Std" font-weight="700" text-decoration="line-through"><tspan x="0" y="0">N</tspan></text>
    <path id="XMLID_1217_" d="M30.281,19.816a2.268,2.268,0,0,0-3.248-1.373A10.452,10.452,0,0,0,26.6,13.4a.593.593,0,0,0-1.122.385,9.26,9.26,0,0,1,.019,5.932l-4.727,4.2a4.767,4.767,0,0,1-.951.657,2.276,2.276,0,0,0-1.227-2.6l-4.188-2.006a7.612,7.612,0,0,0-5.879-.279l-.426.156a9.162,9.162,0,0,1,2.171-9.569l4.188-4.188H19.1l3.548,3.548a.593.593,0,0,0,.839-.839L20.1,5.407,21.321,1.88a1.067,1.067,0,0,0-1.763-1.1l-.007.007a.63.63,0,0,1-.889,0,2.673,2.673,0,0,0-3.776,0,.629.629,0,0,1-.889,0,1.067,1.067,0,0,0-1.762,1.107l1.231,3.518L9.436,9.436A10.389,10.389,0,0,0,6.989,20.254l-.935.343a1.7,1.7,0,0,0-1.348-.666H1.7a1.7,1.7,0,0,0-1.7,1.7V28.67a1.7,1.7,0,0,0,1.7,1.7H17.335a9.333,9.333,0,0,0,6.539-2.654l5.808-5.645A2.265,2.265,0,0,0,30.281,19.816ZM14.441,2.153a1.8,1.8,0,0,0,1.284-.532,1.485,1.485,0,0,1,2.1,0,1.817,1.817,0,0,0,2.242.259L19.016,4.9h-4.47L13.49,1.884A1.8,1.8,0,0,0,14.441,2.153ZM1.186,28.67V21.631a.515.515,0,0,1,.514-.514H4.706a.515.515,0,0,1,.514.514V28.67a.515.515,0,0,1-.514.514H1.7A.515.515,0,0,1,1.186,28.67Zm27.669-7.449-5.808,5.645a8.154,8.154,0,0,1-5.712,2.318H6.327a1.694,1.694,0,0,0,.08-.514V21.732l2.532-.93a6.419,6.419,0,0,1,4.958.235l4.188,2.006a1.092,1.092,0,0,1,.459,1.555,1.09,1.09,0,0,1-1.261.469L11.718,23.3a.593.593,0,1,0-.36,1.131L16.922,26.2a2.284,2.284,0,0,0,.693.108l.083,0a5.942,5.942,0,0,0,3.864-1.5l5.82-5.169a1.087,1.087,0,0,1,.944-.249,1.083,1.083,0,0,1,.529,1.835Z" transform="translate(0 -0.001)" fill="#68387d"/>
    <path id="XMLID_1298_" d="M409.332,180.176a.593.593,0,1,0-.419-.174A.6.6,0,0,0,409.332,180.176Z" transform="translate(-384.493 -168.373)" fill="#ff485a"/>
  </g>
</svg>
