<svg width="160" height="46" viewBox="0 0 160 46" fill="none" xmlns="http://www.w3.org/2000/svg">
<path d="M153.947 45.5684H5.91548C2.65593 45.5684 0 43.0305 0 39.9159V5.978C0 2.86338 2.65593 0.325535 5.91548 0.325535H153.947C157.207 0.325535 159.863 2.86338 159.863 5.978V39.9159C159.863 43.0305 157.183 45.5684 153.947 45.5684Z" fill="#2A3275"/>
<path d="M56.1378 11.9074C56.1378 12.8533 55.8481 13.6146 55.2686 14.1683C54.5925 14.8374 53.7233 15.1835 52.661 15.1835C51.6469 15.1835 50.7535 14.8374 50.0533 14.1683C49.329 13.4762 48.9668 12.6456 48.9668 11.6305C48.9668 10.6154 49.329 9.78479 50.0533 9.11572C50.7777 8.44665 51.6469 8.10059 52.661 8.10059C53.168 8.10059 53.6509 8.19287 54.1096 8.37744C54.5684 8.56201 54.9547 8.8158 55.2203 9.13879L54.5925 9.73864C54.1096 9.208 53.4819 8.93115 52.6368 8.93115C51.8883 8.93115 51.2364 9.18494 50.7052 9.6925C50.1499 10.2001 49.8843 10.8461 49.8843 11.6536C49.8843 12.4611 50.1499 13.1071 50.7052 13.6146C51.2606 14.1222 51.9125 14.376 52.6368 14.376C53.4336 14.376 54.0855 14.1222 54.6167 13.6146C54.9547 13.2916 55.172 12.8302 55.2203 12.2303H52.6368V11.4229H56.0654C56.1378 11.5613 56.1378 11.7228 56.1378 11.9074Z" fill="white" stroke="white" stroke-width="0.199309" stroke-miterlimit="10"/>
<path d="M61.5924 9.06945H58.357V11.2151H61.2785V12.0226H58.357V14.1682H61.5924V14.9988H57.4395V8.21582H61.5924C61.5924 8.23889 61.5924 9.06945 61.5924 9.06945Z" fill="white" stroke="white" stroke-width="0.199309" stroke-miterlimit="10"/>
<path d="M65.456 15.0217H64.5385V9.06934H62.5586V8.23877H67.4358V9.06934H65.456V15.0217Z" fill="white" stroke="white" stroke-width="0.199309" stroke-miterlimit="10"/>
<path d="M70.9629 15.0222V8.23926H71.8804V15.0222H70.9629Z" fill="white" stroke="white" stroke-width="0.199309" stroke-miterlimit="10"/>
<path d="M75.9345 15.0222H75.017V9.06983H73.0371V8.23926H77.9144V9.06983H75.9345V15.0222Z" fill="white" stroke="white" stroke-width="0.199309" stroke-miterlimit="10"/>
<path d="M87.1617 14.1449C86.4615 14.837 85.5923 15.1831 84.5541 15.1831C83.5158 15.1831 82.6466 14.837 81.9464 14.1449C81.2462 13.4528 80.9082 12.6222 80.9082 11.6301C80.9082 10.6381 81.2462 9.78442 81.9464 9.11536C82.6466 8.42322 83.5158 8.07715 84.5541 8.07715C85.5923 8.07715 86.4615 8.42322 87.1617 9.11536C87.8619 9.8075 88.2241 10.6381 88.2241 11.6301C88.1999 12.6222 87.8619 13.4528 87.1617 14.1449ZM82.6225 13.5681C83.1537 14.0757 83.7814 14.3295 84.5541 14.3295C85.3026 14.3295 85.9545 14.0757 86.4857 13.5681C87.0168 13.0605 87.2824 12.4146 87.2824 11.6071C87.2824 10.7996 87.0168 10.1536 86.4857 9.64599C85.9545 9.13843 85.3267 8.88464 84.5541 8.88464C83.7814 8.88464 83.1537 9.13843 82.6225 9.64599C82.0913 10.1536 81.8257 10.7996 81.8257 11.6071C81.8257 12.4146 82.0913 13.0605 82.6225 13.5681Z" fill="white" stroke="white" stroke-width="0.199309" stroke-miterlimit="10"/>
<path d="M89.4805 15.0217V8.23877H90.5911L94.0438 13.5221H94.0921L94.0438 12.207V8.23877H94.9613V15.0217H94.0197L90.398 9.48463H90.3497L90.398 10.7997V15.0217H89.4805Z" fill="white" stroke="white" stroke-width="0.199309" stroke-miterlimit="10"/>
<path d="M80.6685 24.9193C77.8919 24.9193 75.6223 26.9496 75.6223 29.7412C75.6223 32.5098 77.8919 34.5631 80.6685 34.5631C83.4452 34.5631 85.739 32.5098 85.739 29.7412C85.739 26.9496 83.4693 24.9193 80.6685 24.9193ZM80.6685 32.6482C79.1474 32.6482 77.8195 31.4485 77.8195 29.7412C77.8195 28.0109 79.1233 26.8342 80.6685 26.8342C82.2138 26.8342 83.5176 28.0109 83.5176 29.7412C83.5176 31.4485 82.1897 32.6482 80.6685 32.6482ZM69.6585 24.9193C66.8818 24.9193 64.6122 26.9496 64.6122 29.7412C64.6122 32.5098 66.8818 34.5631 69.6585 34.5631C72.4352 34.5631 74.7048 32.5098 74.7048 29.7412C74.7048 26.9496 72.4352 24.9193 69.6585 24.9193ZM69.6585 32.6482C68.1374 32.6482 66.8094 31.4485 66.8094 29.7412C66.8094 28.0109 68.1374 26.8342 69.6585 26.8342C71.1796 26.8342 72.5076 28.0109 72.5076 29.7412C72.4834 31.4485 71.1796 32.6482 69.6585 32.6482ZM56.5237 26.3959V28.4492H61.6424C61.4976 29.6028 61.0871 30.4333 60.4835 31.0101C59.735 31.7253 58.576 32.5098 56.5237 32.5098C53.3849 32.5098 50.9221 30.0873 50.9221 27.088C50.9221 24.0887 53.3849 21.6662 56.5237 21.6662C58.2139 21.6662 59.4694 22.3122 60.3869 23.1197L61.8839 21.6893C60.6042 20.5127 58.9141 19.636 56.5237 19.636C52.2018 19.636 48.5801 22.9813 48.5801 27.1111C48.5801 31.2408 52.2018 34.5862 56.5237 34.5862C58.8658 34.5862 60.6042 33.8479 61.9805 32.4867C63.3809 31.1486 63.8396 29.2336 63.8396 27.7109C63.8396 27.2264 63.7913 26.7881 63.7189 26.442C63.7189 26.3959 56.5237 26.3959 56.5237 26.3959ZM110.174 27.9878C109.763 26.9034 108.483 24.9193 105.852 24.9193C103.268 24.9193 101.095 26.8804 101.095 29.7412C101.095 32.4405 103.22 34.5631 106.093 34.5631C108.411 34.5631 109.739 33.225 110.294 32.4405L108.58 31.3562C108 32.1637 107.228 32.6943 106.093 32.6943C104.982 32.6943 104.161 32.2098 103.654 31.2408L110.391 28.5876C110.415 28.5184 110.174 27.9878 110.174 27.9878ZM103.316 29.5797C103.268 27.734 104.813 26.765 105.948 26.765C106.817 26.765 107.566 27.1803 107.831 27.7801C107.807 27.8032 103.316 29.5797 103.316 29.5797ZM97.8355 34.2632H100.057V20.1205H97.8355V34.2632ZM94.2138 25.9806H94.1413C93.6343 25.4269 92.6927 24.9193 91.4854 24.9193C88.9744 24.9193 86.6565 27.0419 86.6565 29.7412C86.6565 32.4405 88.9744 34.54 91.4854 34.54C92.6927 34.54 93.6343 34.0325 94.1413 33.4557H94.2138V34.1478C94.2138 35.9935 93.1756 36.9856 91.5337 36.9856C90.1816 36.9856 89.3365 36.0627 88.9985 35.2783L87.0669 36.0397C87.6222 37.3086 89.0951 38.8774 91.5337 38.8774C94.1413 38.8774 96.3144 37.4239 96.3144 33.871V25.2192H94.2138V25.9806ZM91.6786 32.6482C90.1575 32.6482 88.8778 31.4254 88.8778 29.7412C88.8778 28.0339 90.1575 26.8111 91.6786 26.8111C93.1756 26.8111 94.3587 28.057 94.3587 29.7412C94.3587 31.4254 93.1756 32.6482 91.6786 32.6482ZM120.556 20.0974H115.268V34.2401H117.465V28.8876H120.556C123.019 28.8876 125.409 27.1803 125.409 24.504C125.409 21.8047 122.994 20.0974 120.556 20.0974ZM120.604 26.9265H117.465V22.0815H120.604C122.246 22.0815 123.188 23.3966 123.188 24.504C123.188 25.5884 122.246 26.9265 120.604 26.9265ZM134.27 24.8962C132.676 24.8962 131.01 25.5653 130.334 27.0649L132.29 27.8494C132.701 27.0649 133.497 26.8111 134.318 26.8111C135.453 26.8111 136.636 27.4802 136.636 28.6338V28.7722C136.226 28.5415 135.381 28.2185 134.318 28.2185C132.218 28.2185 130.045 29.3259 130.045 31.4023C130.045 33.2942 131.783 34.517 133.715 34.517C135.212 34.517 136.033 33.871 136.54 33.1327H136.612V34.217H138.737V28.7953C138.761 26.3036 136.805 24.8962 134.27 24.8962ZM134.004 32.6482C133.28 32.6482 132.266 32.3021 132.266 31.4485C132.266 30.3641 133.522 29.9258 134.608 29.9258C135.574 29.9258 136.033 30.1334 136.636 30.4103C136.443 31.7253 135.284 32.6482 134.004 32.6482ZM146.536 25.1962L144 31.3331H143.928L141.296 25.1962H138.906L142.841 33.7556L140.596 38.5314H142.914L148.998 25.1962H146.536ZM126.616 34.2632H128.837V20.1205H126.616V34.2632Z" fill="white"/>
<path d="M12.3385 8.8391C12.0005 9.18517 11.7832 9.73887 11.7832 10.431V35.4634C11.7832 36.1555 11.9764 36.7092 12.3385 37.0553L12.4351 37.1245L27.1152 23.0972V22.7742L12.4351 8.74681L12.3385 8.8391Z" fill="url(#paint0_linear_57_5012)"/>
<path d="M31.9925 27.7803L27.1152 23.0968V22.7738L32.0166 18.0903L32.1374 18.1595L37.9321 21.3203C39.574 22.2201 39.574 23.6967 37.9321 24.5964L32.1374 27.7341C32.1132 27.7111 31.9925 27.7803 31.9925 27.7803Z" fill="url(#paint1_linear_57_5012)"/>
<path d="M32.1118 27.7116L27.1138 22.9358L12.3613 37.0324C12.9167 37.5861 13.81 37.6553 14.8241 37.1016L32.1118 27.7116Z" fill="url(#paint2_linear_57_5012)"/>
<path d="M32.1125 18.1598L14.8007 8.76977C13.7866 8.21606 12.8932 8.28527 12.3379 8.83898L27.0904 22.9355L32.1125 18.1598Z" fill="url(#paint3_linear_57_5012)"/>
<defs>
<linearGradient id="paint0_linear_57_5012" x1="25.7988" y1="35.7141" x2="2.31919" y2="10.8517" gradientUnits="userSpaceOnUse">
<stop stop-color="#00A0FF"/>
<stop offset="0.0066" stop-color="#00A1FF"/>
<stop offset="0.2601" stop-color="#00BEFF"/>
<stop offset="0.5122" stop-color="#00D2FF"/>
<stop offset="0.7604" stop-color="#00DFFF"/>
<stop offset="1" stop-color="#00E3FF"/>
</linearGradient>
<linearGradient id="paint1_linear_57_5012" x1="40.0524" y1="22.9368" x2="4.14709" y2="22.9368" gradientUnits="userSpaceOnUse">
<stop stop-color="#FFE000"/>
<stop offset="0.4087" stop-color="#FFBD00"/>
<stop offset="0.7754" stop-color="#FFA500"/>
<stop offset="1" stop-color="#FF9C00"/>
</linearGradient>
<linearGradient id="paint2_linear_57_5012" x1="19.5016" y1="29.7816" x2="-12.3387" y2="-3.9338" gradientUnits="userSpaceOnUse">
<stop stop-color="#FF3A44"/>
<stop offset="1" stop-color="#C31162"/>
</linearGradient>
<linearGradient id="paint3_linear_57_5012" x1="-1.255" y1="35.9292" x2="12.9631" y2="20.8739" gradientUnits="userSpaceOnUse">
<stop stop-color="#32A071"/>
<stop offset="0.0685" stop-color="#2DA771"/>
<stop offset="0.4762" stop-color="#15CF74"/>
<stop offset="0.8009" stop-color="#06E775"/>
<stop offset="1" stop-color="#00F076"/>
</linearGradient>
</defs>
</svg>
