<svg id="light-bulb" xmlns="http://www.w3.org/2000/svg" width="45.284" height="56.606" viewBox="0 0 45.284 56.606">
  <g id="Group_90" data-name="Group 90" transform="translate(0)">
    <g id="Group_89" data-name="Group 89">
      <path id="Path_55" data-name="Path 55" d="M232.946,5.66a.943.943,0,0,0,.943-.943V.943a.943.943,0,0,0-1.887,0V4.717A.943.943,0,0,0,232.946,5.66Z" transform="translate(-210.304)" fill="#36b6e1"/>
      <path id="Path_56" data-name="Path 56" d="M140.1,26.029l1.887,3.267a.943.943,0,1,0,1.64-.933l-.006-.011-1.887-3.267a.943.943,0,0,0-1.64.933Z" transform="translate(-129.129 -21.706)" fill="#36b6e1"/>
      <path id="Path_57" data-name="Path 57" d="M73.078,93.73l.011.006,3.267,1.887A.943.943,0,1,0,77.31,94l-.011-.006L74.032,92.1a.943.943,0,0,0-.954,1.628Z" transform="translate(-69.709 -81.126)" fill="#36b6e1"/>
      <path id="Path_58" data-name="Path 58" d="M53.663,184.943A.943.943,0,0,0,52.72,184H48.946a.943.943,0,1,0,0,1.887H52.72A.943.943,0,0,0,53.663,184.943Z" transform="translate(-48.003 -162.301)" fill="#36b6e1"/>
      <path id="Path_59" data-name="Path 59" d="M76.366,260.1l-.011.006-3.267,1.887a.943.943,0,0,0,.932,1.64l.011-.006,3.267-1.887a.943.943,0,0,0-.932-1.64Z" transform="translate(-69.709 -229.314)" fill="#36b6e1"/>
      <path id="Path_60" data-name="Path 60" d="M368.294,261.995l-.011-.006-3.267-1.887a.943.943,0,0,0-.954,1.628l.011.006,3.267,1.887a.943.943,0,1,0,.955-1.628Z" transform="translate(-326.378 -229.314)" fill="#36b6e1"/>
      <path id="Path_61" data-name="Path 61" d="M388.72,184h-3.774a.943.943,0,1,0,0,1.887h3.774a.943.943,0,1,0,0-1.887Z" transform="translate(-344.38 -162.301)" fill="#36b6e1"/>
      <path id="Path_62" data-name="Path 62" d="M364.593,95.749a.943.943,0,0,0,.472-.126l3.267-1.887a.943.943,0,0,0-.933-1.64l-.011.006-3.267,1.887a.943.943,0,0,0,.472,1.76Z" transform="translate(-326.426 -81.126)" fill="#36b6e1"/>
      <path id="Path_63" data-name="Path 63" d="M308.469,29.641h0a.943.943,0,0,0,1.289-.346h0l1.887-3.267a.943.943,0,1,0-1.628-.955l-.006.011-1.887,3.267A.944.944,0,0,0,308.469,29.641Z" transform="translate(-277.337 -21.706)" fill="#36b6e1"/>
      <path id="Path_64" data-name="Path 64" d="M178.381,178.868a.943.943,0,0,0,.943-.943V167.547h1.887a3.774,3.774,0,1,0-3.774-3.774v1.887H175.55v-1.887a3.774,3.774,0,1,0-3.774,3.774h1.887v10.378a.943.943,0,0,0,1.887,0V167.547h1.887v10.378A.943.943,0,0,0,178.381,178.868Zm.943-15.095a1.887,1.887,0,1,1,1.887,1.887h-1.887Zm-5.66,1.887h-1.887a1.887,1.887,0,1,1,1.887-1.887Z" transform="translate(-153.852 -141.132)" fill="#36b6e1"/>
      <path id="Path_65" data-name="Path 65" d="M127.9,64.02a15.095,15.095,0,0,0-10.3,26.745,2.812,2.812,0,0,1,1.077,2.158v2.212a2.83,2.83,0,0,0,1.887,2.657v1.117a2.812,2.812,0,0,0,.736,1.887,2.787,2.787,0,0,0,0,3.774,2.818,2.818,0,0,0,2.094,4.717.92.92,0,0,0,.775-1.45,1,1,0,0,0-.106-.163.975.975,0,0,0-.262-.172c-.027-.014-.055-.025-.083-.037a1,1,0,0,0-.3-.059c-.009,0-.018-.006-.027-.006a.943.943,0,1,1,0-1.887h3.774a.943.943,0,1,0,0-1.887h-3.774a.943.943,0,1,1,0-1.887h3.774a.943.943,0,1,0,0-1.887h-3.774a.943.943,0,0,1-.943-.943v-.943h4.717a.943.943,0,1,0,0-1.887H121.5a.943.943,0,0,1-.943-.943V92.922a4.69,4.69,0,0,0-1.769-3.618,13.208,13.208,0,0,1,9.016-23.4A13.36,13.36,0,0,1,140.37,79.016a13.13,13.13,0,0,1-4.9,10.343,4.677,4.677,0,0,0-1.7,3.673v2.1a.943.943,0,0,1-.943.943h-2.83a.943.943,0,1,0,0,1.887h1.887v.943a.943.943,0,0,1-.943.943h-.943a.943.943,0,1,0,0,1.887h.943a.943.943,0,1,1,0,1.887h-.943a.943.943,0,1,0,0,1.887h.943a.943.943,0,1,1,0,1.887h-4.717a.943.943,0,1,0,0,1.887h3.612a2.83,2.83,0,0,1-4.784.937.944.944,0,1,0-1.409,1.255,4.707,4.707,0,0,0,8.161-2.341,2.8,2.8,0,0,0,1.231-4.568,2.787,2.787,0,0,0,0-3.774,2.812,2.812,0,0,0,.736-1.887V97.791a2.83,2.83,0,0,0,1.887-2.657v-2.1a2.836,2.836,0,0,1,1-2.2A15.005,15.005,0,0,0,142.257,79,15.27,15.27,0,0,0,127.9,64.02Z" transform="translate(-104.52 -56.454)" fill="#68387d"/>
    </g>
  </g>
</svg>
