<svg id="transaction" xmlns="http://www.w3.org/2000/svg" width="36" height="36" viewBox="0 0 36 36">
  <g id="Group_171" data-name="Group 171" transform="translate(7.83 30.35)">
    <g id="Group_170" data-name="Group 170">
      <path id="Path_80" data-name="Path 80" d="M122.175,426.667h-19.21a.565.565,0,0,0-.565.565v2.675a2.413,2.413,0,0,0,2.41,2.41H120.33a2.413,2.413,0,0,0,2.41-2.41v-2.675A.565.565,0,0,0,122.175,426.667Zm-.565,3.24a1.282,1.282,0,0,1-1.28,1.28H104.81a1.282,1.282,0,0,1-1.28-1.28V427.8h18.08Z" transform="translate(-102.4 -426.667)" fill="#68387d"/>
    </g>
  </g>
  <g id="Group_173" data-name="Group 173" transform="translate(15.74 32.61)">
    <g id="Group_172" data-name="Group 172">
      <path id="Path_81" data-name="Path 81" d="M225.822,460.8h-3.39a.565.565,0,1,0,0,1.13h3.39a.565.565,0,0,0,0-1.13Z" transform="translate(-221.867 -460.8)" fill="#36b6e1"/>
    </g>
  </g>
  <g id="Group_175" data-name="Group 175" transform="translate(22.344 32.61)">
    <g id="Group_174" data-name="Group 174">
      <path id="Path_82" data-name="Path 82" d="M318.559,460.8H316.3a.565.565,0,0,0,0,1.13h2.26a.565.565,0,0,0,0-1.13Z" transform="translate(-315.734 -460.8)" fill="#36b6e1"/>
    </g>
  </g>
  <g id="Group_177" data-name="Group 177" transform="translate(10.266 32.61)">
    <g id="Group_176" data-name="Group 176">
      <path id="Path_83" data-name="Path 83" d="M147.892,460.8h-2.26a.565.565,0,1,0,0,1.13h2.26a.565.565,0,0,0,0-1.13Z" transform="translate(-145.067 -460.8)" fill="#36b6e1"/>
    </g>
  </g>
  <g id="Group_179" data-name="Group 179" transform="translate(7.83)">
    <g id="Group_178" data-name="Group 178">
      <path id="Path_84" data-name="Path 84" d="M120.33,0H104.81a2.413,2.413,0,0,0-2.41,2.41V5.085a.565.565,0,0,0,.565.565h19.21a.565.565,0,0,0,.565-.565V2.41A2.413,2.413,0,0,0,120.33,0Zm1.28,4.52H103.53V2.41a1.282,1.282,0,0,1,1.28-1.28H120.33a1.282,1.282,0,0,1,1.28,1.28V4.52Z" transform="translate(-102.4)" fill="#68387d"/>
    </g>
  </g>
  <g id="Group_181" data-name="Group 181" transform="translate(14.61 2.26)">
    <g id="Group_180" data-name="Group 180">
      <path id="Path_85" data-name="Path 85" d="M211.016,34.133h-5.65a.565.565,0,0,0,0,1.13h5.65a.565.565,0,1,0,0-1.13Z" transform="translate(-204.801 -34.133)" fill="#68387d"/>
    </g>
  </g>
  <g id="Group_183" data-name="Group 183" transform="translate(0 8.645)">
    <g id="Group_182" data-name="Group 182">
      <path id="Path_86" data-name="Path 86" d="M15.255,119.467H.565a.565.565,0,0,0-.565.565V130.2a.565.565,0,0,0,.565.565h14.69a.565.565,0,0,0,.565-.565v-10.17A.565.565,0,0,0,15.255,119.467Zm-.565,10.17H1.13V120.6H14.69Z" transform="translate(0 -119.467)" fill="#68387d"/>
    </g>
  </g>
  <g id="Group_185" data-name="Group 185" transform="translate(20.18 16.055)">
    <g id="Group_184" data-name="Group 184">
      <path id="Path_87" data-name="Path 87" d="M287.008,221.867H274.946a1.88,1.88,0,0,0-1.879,1.879v7.543a1.88,1.88,0,0,0,1.879,1.879h12.063a1.88,1.88,0,0,0,1.879-1.879v-7.543A1.88,1.88,0,0,0,287.008,221.867Zm.749,9.421a.75.75,0,0,1-.749.749H274.946a.75.75,0,0,1-.749-.749v-7.543a.75.75,0,0,1,.749-.749h12.063a.75.75,0,0,1,.749.749v7.543Z" transform="translate(-273.067 -221.867)" fill="#68387d"/>
    </g>
  </g>
  <g id="Group_187" data-name="Group 187" transform="translate(5.463 11.533)">
    <g id="Group_186" data-name="Group 186">
      <path id="Path_88" data-name="Path 88" d="M79.625,162.133a2.825,2.825,0,1,0,2.825,2.825A2.828,2.828,0,0,0,79.625,162.133Zm0,4.52a1.695,1.695,0,1,1,1.695-1.7A1.7,1.7,0,0,1,79.625,166.653Z" transform="translate(-76.8 -162.133)" fill="#36b6e1"/>
    </g>
  </g>
  <g id="Group_189" data-name="Group 189" transform="translate(0 8.475)">
    <g id="Group_188" data-name="Group 188">
      <path id="Path_89" data-name="Path 89" d="M3.955,119.467H.565a.565.565,0,0,0-.565.565v3.39a.565.565,0,0,0,.565.565,3.96,3.96,0,0,0,3.955-3.955A.565.565,0,0,0,3.955,119.467ZM1.13,122.8v-2.2h2.2A2.834,2.834,0,0,1,1.13,122.8Z" transform="translate(0 -119.467)" fill="#68387d"/>
    </g>
  </g>
  <g id="Group_191" data-name="Group 191" transform="translate(12.108 8.475)">
    <g id="Group_190" data-name="Group 190">
      <path id="Path_90" data-name="Path 90" d="M174.622,119.467h-3.39a.565.565,0,0,0-.565.565,3.96,3.96,0,0,0,3.955,3.955.565.565,0,0,0,.565-.565v-3.39A.565.565,0,0,0,174.622,119.467Zm-.565,3.333a2.834,2.834,0,0,1-2.2-2.2h2.2Z" transform="translate(-170.667 -119.467)" fill="#68387d"/>
    </g>
  </g>
  <g id="Group_193" data-name="Group 193" transform="translate(12.108 15.74)">
    <g id="Group_192" data-name="Group 192">
      <path id="Path_91" data-name="Path 91" d="M174.622,221.867a3.96,3.96,0,0,0-3.955,3.955.565.565,0,0,0,.565.565h3.39a.565.565,0,0,0,.565-.565v-3.39A.565.565,0,0,0,174.622,221.867Zm-.565,3.39h-2.2a2.834,2.834,0,0,1,2.2-2.2Z" transform="translate(-170.667 -221.867)" fill="#68387d"/>
    </g>
  </g>
  <g id="Group_195" data-name="Group 195" transform="translate(0 15.74)">
    <g id="Group_194" data-name="Group 194">
      <path id="Path_92" data-name="Path 92" d="M.565,221.867a.565.565,0,0,0-.565.565v3.39a.565.565,0,0,0,.565.565h3.39a.565.565,0,0,0,.565-.565A3.96,3.96,0,0,0,.565,221.867Zm.565,3.39v-2.2a2.834,2.834,0,0,1,2.2,2.2Z" transform="translate(0 -221.867)" fill="#68387d"/>
    </g>
  </g>
  <g id="Group_197" data-name="Group 197" transform="translate(20.18 15.74)">
    <g id="Group_196" data-name="Group 196">
      <path id="Path_93" data-name="Path 93" d="M287.008,221.867H274.946a1.88,1.88,0,0,0-1.879,1.879v2.076a.565.565,0,0,0,.565.565h14.69a.565.565,0,0,0,.565-.565v-2.076A1.88,1.88,0,0,0,287.008,221.867Zm.749,3.39H274.2v-1.511a.75.75,0,0,1,.749-.749h12.063a.75.75,0,0,1,.749.749v1.511Z" transform="translate(-273.067 -221.867)" fill="#68387d"/>
    </g>
  </g>
  <g id="Group_199" data-name="Group 199" transform="translate(21.74 23.447)">
    <g id="Group_198" data-name="Group 198">
      <path id="Path_94" data-name="Path 94" d="M310.026,332.8h-2.26a.565.565,0,0,0,0,1.13h2.26a.565.565,0,1,0,0-1.13Z" transform="translate(-307.201 -332.8)" fill="#36b6e1"/>
    </g>
  </g>
  <g id="Group_201" data-name="Group 201" transform="translate(30.35 23.447)">
    <g id="Group_200" data-name="Group 200">
      <path id="Path_95" data-name="Path 95" d="M429.492,332.8h-2.26a.565.565,0,1,0,0,1.13h2.26a.565.565,0,0,0,0-1.13Z" transform="translate(-426.667 -332.8)" fill="#36b6e1"/>
    </g>
  </g>
  <g id="Group_203" data-name="Group 203" transform="translate(26.51 23.447)">
    <g id="Group_202" data-name="Group 202">
      <path id="Path_96" data-name="Path 96" d="M377.162,332.8h-1.13a.565.565,0,1,0,0,1.13h1.13a.565.565,0,0,0,0-1.13Z" transform="translate(-375.467 -332.8)" fill="#36b6e1"/>
    </g>
  </g>
  <g id="Group_205" data-name="Group 205" transform="translate(7.83 4.52)">
    <g id="Group_204" data-name="Group 204">
      <path id="Path_97" data-name="Path 97" d="M115.579,80.522h6.6a.59.59,0,0,0,.565-.613V68.88a.59.59,0,0,0-.565-.613h-19.21a.59.59,0,0,0-.565.613v3.676a.59.59,0,0,0,.565.613h7.345v9.8h-7.345a.59.59,0,0,0-.565.613V94.614a.59.59,0,0,0,.565.613h19.21a.59.59,0,0,0,.565-.613V90.938a.59.59,0,0,0-.565-.613h-6.6a.783.783,0,0,1-.749-.812v-8.18A.783.783,0,0,1,115.579,80.522Zm0,11.029h6.031V94H103.53V84.2h7.345a.59.59,0,0,0,.565-.613V72.556a.59.59,0,0,0-.565-.613H103.53V69.492h18.08v9.8h-6.031a1.965,1.965,0,0,0-1.879,2.037v8.18A1.965,1.965,0,0,0,115.579,91.551Z" transform="translate(-102.4 -68.267)" fill="#68387d"/>
    </g>
  </g>
  <g id="Group_207" data-name="Group 207" transform="translate(2.825 22.491)">
    <g id="Group_206" data-name="Group 206">
      <path id="Path_98" data-name="Path 98" d="M43.232,315.733a.565.565,0,0,0-.565.565v5.085a.565.565,0,1,0,1.13,0V316.3A.565.565,0,0,0,43.232,315.733Z" transform="translate(-42.667 -315.733)" fill="#36b6e1"/>
    </g>
  </g>
  <g id="Group_209" data-name="Group 209" transform="translate(1.13 22.318)">
    <g id="Group_208" data-name="Group 208">
      <path id="Path_99" data-name="Path 99" d="M19.724,315.9a.564.564,0,0,0-.8,0l-1.7,1.7a.565.565,0,1,0,.8.8l1.7-1.7A.564.564,0,0,0,19.724,315.9Z" transform="translate(-17.064 -315.732)" fill="#36b6e1"/>
    </g>
  </g>
  <g id="Group_211" data-name="Group 211" transform="translate(2.825 22.318)">
    <g id="Group_210" data-name="Group 210">
      <path id="Path_100" data-name="Path 100" d="M45.324,317.593l-1.7-1.7a.565.565,0,1,0-.8.8l1.695,1.7a.565.565,0,0,0,.8-.8Z" transform="translate(-42.664 -315.732)" fill="#36b6e1"/>
    </g>
  </g>
  <g id="Group_213" data-name="Group 213" transform="translate(32.045 7.294)">
    <g id="Group_212" data-name="Group 212">
      <path id="Path_101" data-name="Path 101" d="M452.832,102.4a.565.565,0,0,0-.565.565v5.085a.565.565,0,1,0,1.13,0v-5.085A.565.565,0,0,0,452.832,102.4Z" transform="translate(-452.267 -102.4)" fill="#36b6e1"/>
    </g>
  </g>
  <g id="Group_215" data-name="Group 215" transform="translate(32.045 10.857)">
    <g id="Group_214" data-name="Group 214">
      <path id="Path_102" data-name="Path 102" d="M454.924,153.763a.564.564,0,0,0-.8,0l-1.7,1.695a.565.565,0,1,0,.8.8l1.695-1.7A.564.564,0,0,0,454.924,153.763Z" transform="translate(-452.264 -153.597)" fill="#36b6e1"/>
    </g>
  </g>
  <g id="Group_217" data-name="Group 217" transform="translate(30.35 10.857)">
    <g id="Group_216" data-name="Group 216">
      <path id="Path_103" data-name="Path 103" d="M429.325,155.458l-1.7-1.7a.565.565,0,0,0-.8.8l1.7,1.7a.565.565,0,1,0,.8-.8Z" transform="translate(-426.665 -153.597)" fill="#36b6e1"/>
    </g>
  </g>
</svg>
