<svg width="648" height="982" viewBox="0 0 648 982" fill="none" xmlns="http://www.w3.org/2000/svg">
<g clip-path="url(#clip0_1_3)">
<path d="M648 0H0V982H648V0Z" fill="#68387D"/>
<g clip-path="url(#clip1_1_3)">
<path d="M285.159 37.6968C306.882 37.6968 324.492 20.8194 324.492 1.90735e-05C324.492 -20.8193 306.882 -37.6967 285.159 -37.6967C263.437 -37.6967 245.827 -20.8193 245.827 1.90735e-05C245.827 20.8194 263.437 37.6968 285.159 37.6968Z" fill="#8FCFEF"/>
</g>
<g clip-path="url(#clip2_1_3)">
<path d="M526.561 873.622C536.065 873.622 543.769 866.238 543.769 857.13C543.769 848.021 536.065 840.637 526.561 840.637C517.058 840.637 509.354 848.021 509.354 857.13C509.354 866.238 517.058 873.622 526.561 873.622Z" fill="#FAC6C8"/>
</g>
<path d="M58.5 403C68.165 403 76 395.165 76 385.5C76 375.835 68.165 368 58.5 368C48.835 368 41 375.835 41 385.5C41 395.165 48.835 403 58.5 403Z" fill="#FAC6C8"/>
<path opacity="0.43" d="M310.5 642C329.002 642 344 627.002 344 608.5C344 589.998 329.002 575 310.5 575C291.998 575 277 589.998 277 608.5C277 627.002 291.998 642 310.5 642Z" fill="#D2B8D8"/>
<path d="M153 744C158.523 744 163 739.523 163 734C163 728.477 158.523 724 153 724C147.477 724 143 728.477 143 734C143 739.523 147.477 744 153 744Z" fill="#8FCFEF"/>
<path d="M543.5 244C549.851 244 555 238.851 555 232.5C555 226.149 549.851 221 543.5 221C537.149 221 532 226.149 532 232.5C532 238.851 537.149 244 543.5 244Z" fill="#FAC6C8"/>
</g>
<defs>
<clipPath id="clip0_1_3">
<rect width="648" height="982" fill="white"/>
</clipPath>
<clipPath id="clip1_1_3">
<rect width="78.6646" height="75.3935" fill="white" transform="translate(245.827 -37.6967)"/>
</clipPath>
<clipPath id="clip2_1_3">
<rect width="34.4158" height="32.9846" fill="white" transform="translate(509.354 840.637)"/>
</clipPath>
</defs>
</svg>
